<svg version="1.1" xmlns="http://www.w3.org/2000/svg" width="180" height="60">
<path d="M0 0 C4.95 0 9.9 0 15 0 C16.34070318 2.60060504 17.67273354 5.20504916 19 7.8125 C19.57234375 8.91948242 19.57234375 8.91948242 20.15625 10.04882812 C20.69765625 11.11713867 20.69765625 11.11713867 21.25 12.20703125 C21.58515625 12.8616333 21.9203125 13.51623535 22.265625 14.19067383 C23 16 23 16 23 19 C23.66 19 24.32 19 25 19 C25.103125 17.906875 25.20625 16.81375 25.3125 15.6875 C25.97061041 10.29680151 27.50167472 5.2115662 29 0 C33.95 0 38.9 0 44 0 C43.43470981 6.19975871 42.40984956 11.94501098 40.75 17.9375 C40.53182617 18.74364746 40.31365234 19.54979492 40.08886719 20.38037109 C39.63143278 22.06515632 39.17078661 23.74907262 38.70703125 25.43212891 C37.99474574 28.019083 37.29350614 30.60885052 36.59375 33.19921875 C36.14647144 34.84131977 35.69857735 36.48325329 35.25 38.125 C35.03956055 38.90093506 34.82912109 39.67687012 34.61230469 40.47631836 C33.11607597 45.88392403 33.11607597 45.88392403 32 47 C29.4672235 47.07320163 26.96896082 47.09227569 24.4375 47.0625 C21.983125 47.041875 19.52875 47.02125 17 47 C14.36 41.06 11.72 35.12 9 29 C8.525625 31.701875 8.05125 34.40375 7.5625 37.1875 C5.03640821 48.20049714 -2.15027182 53.22371028 -11.29174805 59.09228516 C-13 60 -13 60 -15 60 C-14.26942136 53.40002689 -12.55653141 47.12695119 -10.83984375 40.72265625 C-10.53051407 39.5561705 -10.22118439 38.38968475 -9.90248108 37.18785095 C-8.9178891 33.47839612 -7.92777493 29.7704413 -6.9375 26.0625 C-6.26721274 23.54111273 -5.59728679 21.01962938 -4.92773438 18.49804688 C-3.28934001 12.33091029 -1.64599296 6.16511268 0 0 Z " fill="#FFFFFF" transform="translate(58,0)"/>
<path d="M0 0 C4.02009457 -0.07455949 8.03991733 -0.12879358 12.06054688 -0.16479492 C13.42617816 -0.17981428 14.79176176 -0.20023608 16.15722656 -0.22631836 C18.12803905 -0.26300137 20.09921408 -0.27818551 22.0703125 -0.29296875 C23.25383301 -0.3086792 24.43735352 -0.32438965 25.65673828 -0.34057617 C30.10726531 0.11279649 33.37618903 1.65615644 36.8125 4.5 C40.37077475 8.99466284 39.44705626 15.62902826 39 21 C36.94511609 30.54640354 33.15785683 38.54747137 24.8125 43.9375 C20.15442331 46.64782076 16.5265118 47.12036503 11.14453125 47.09765625 C10.15207649 47.09553383 10.15207649 47.09553383 9.13957214 47.09336853 C7.03050172 47.08777996 4.92153823 47.07522965 2.8125 47.0625 C1.38086091 47.05748352 -0.05077985 47.05292087 -1.48242188 47.04882812 C-4.98831588 47.0378143 -8.4941475 47.02055755 -12 47 C-11.3966029 41.20787973 -10.29912314 35.80295146 -8.75 30.1953125 C-8.53182617 29.39012177 -8.31365234 28.58493103 -8.08886719 27.75534058 C-7.63081196 26.06894457 -7.17016592 24.3832503 -6.70703125 22.69824219 C-5.99667699 20.1129059 -5.29456775 17.52543593 -4.59375 14.9375 C-4.14630868 13.29414134 -3.69840848 11.65090753 -3.25 10.0078125 C-3.03956055 9.23390167 -2.82912109 8.45999084 -2.61230469 7.66262817 C-1.11673968 2.23347936 -1.11673968 2.23347936 0 0 Z M11 15 C10.32844651 17.26949102 9.6626037 19.5403961 9 21.8125 C8.62875 23.07707031 8.2575 24.34164063 7.875 25.64453125 C6.87383491 28.90587415 6.87383491 28.90587415 7 32 C13.98526205 32.6939134 13.98526205 32.6939134 20.0625 29.6875 C23.40134587 25.05619767 23.17731532 21.49677487 23 16 C21.94021067 14.71387324 21.94021067 14.71387324 19.49609375 14.90234375 C18.48675781 14.91394531 17.47742188 14.92554688 16.4375 14.9375 C15.42558594 14.94652344 14.41367187 14.95554687 13.37109375 14.96484375 C12.58863281 14.97644531 11.80617188 14.98804688 11 15 Z " fill="#FFFFFF" transform="translate(12,0)"/>
<path d="M0 0 C4.95 0 9.9 0 15 0 C14.67 3.63 14.34 7.26 14 11 C14.98613281 9.80890625 14.98613281 9.80890625 15.9921875 8.59375 C20.34395753 3.7810667 24.0691841 -0.1591894 30.8046875 -0.73046875 C35.23636802 -0.80734395 39.59694885 -0.48433563 44 0 C44 3 44 3 42.6015625 4.5078125 C41.62316406 5.30832031 41.62316406 5.30832031 40.625 6.125 C37.28941796 8.91551357 34.02924344 11.76011879 30.8125 14.6875 C27.62870953 17.58325773 24.38252696 20.33843793 21 23 C23.04620194 28.63267678 26.03951521 33.77672501 28.8984375 39.02539062 C29.29546875 39.76337891 29.6925 40.50136719 30.1015625 41.26171875 C30.46588379 41.93162842 30.83020508 42.60153809 31.20556641 43.29174805 C32 45 32 45 32 47 C19.3408369 48.4467615 19.3408369 48.4467615 14 47 C10.36956627 43.47770685 8.62618823 39.75129777 7 35 C6.85046875 35.75023437 6.7009375 36.50046875 6.546875 37.2734375 C3.98239206 47.25480737 -0.89120381 51.19383751 -9 57 C-10.11375 57.87978516 -10.11375 57.87978516 -11.25 58.77734375 C-13 60 -13 60 -15 60 C-14.35128947 53.05110076 -12.68562208 46.56388837 -10.83984375 39.84375 C-10.53051407 38.70087524 -10.22118439 37.55800049 -9.90248108 36.38049316 C-8.91922267 32.7522636 -7.92847801 29.12612784 -6.9375 25.5 C-6.26708186 23.03138472 -5.59715464 20.56263606 -4.92773438 18.09375 C-3.29083611 12.06094093 -1.6472235 6.02999763 0 0 Z " fill="#FFFFFF" transform="translate(105,0)"/>
</svg>